<svg xmlns="http://www.w3.org/2000/svg"><symbol id="error" viewBox="0 0 512 512"><path fill="#A579EA" d="M507.606 145.568L366.432 4.394A15 15 0 0 0 355.826 0H156.174a15 15 0 0 0-10.606 4.394L4.394 145.568A15 15 0 0 0 0 156.174v199.651a15 15 0 0 0 4.394 10.606l141.174 141.174a15 15 0 0 0 10.606 4.394h199.651a15 15 0 0 0 10.606-4.394l141.174-141.174a15 15 0 0 0 4.394-10.606V156.174a14.995 14.995 0 0 0-4.393-10.606z" data-original="#f25a3c"/><path fill="#A579EA" d="M512 156.17v199.66c0 3.97-1.58 7.79-4.39 10.6L366.43 507.61a15.003 15.003 0 0 1-10.6 4.39H256V0h99.83c3.97 0 7.79 1.58 10.6 4.39l141.18 141.18c2.81 2.81 4.39 6.63 4.39 10.6z" data-original="#e43539"/><path fill="#E9F3FB" d="M237.171 106h37.658c8.728 0 15.613 7.422 14.958 16.126l-12.793 170c-.589 7.826-7.11 13.874-14.958 13.874h-12.073c-7.848 0-14.369-6.049-14.958-13.874l-12.792-170c-.654-8.704 6.23-16.126 14.958-16.126z" data-original="#e9f3fb"/><path fill="#D6E9F8" d="M289.79 122.13l-12.8 170c-.58 7.82-7.11 13.87-14.95 13.87H256V106h18.83c8.73 0 15.61 7.42 14.96 16.13z" data-original="#d6e9f8"/><path fill="#E9F3FB" d="M226.05 375.95v.1c0 16.541 13.409 29.95 29.95 29.95 16.541 0 29.95-13.409 29.95-29.95v-.1c0-16.541-13.409-29.95-29.95-29.95-16.541 0-29.95 13.409-29.95 29.95z" data-original="#e9f3fb"/><path fill="#D6E9F8" d="M285.95 375.95v.1c0 8.27-3.35 15.76-8.77 21.18S264.27 406 256 406v-60c16.54 0 29.95 13.41 29.95 29.95z" data-original="#d6e9f8"/></symbol><symbol id="404" viewBox="0 0 58 58"><g fill="none" fill-rule="evenodd"><path fill="#9F7AEA" d="M58 19.059v19.883a5 5 0 0 1-1.464 3.535L42.477 56.536A5 5 0 0 1 38.942 58H19.058a5 5 0 0 1-3.535-1.464L1.464 42.477A5 5 0 0 1 0 38.942V19.059a5 5 0 0 1 1.464-3.536L15.523 1.464A5 5 0 0 1 19.058 0h19.884a5 5 0 0 1 3.535 1.464l14.059 14.059A5 5 0 0 1 58 19.059z" data-original="#e54c3c"/><path fill="#9F7AEA" d="M19.473 54a2 2 0 0 1-1.414-.586L4.586 39.941A2 2 0 0 1 4 38.527V19.473a2 2 0 0 1 .586-1.414L18.059 4.586A2 2 0 0 1 19.473 4h19.054a2 2 0 0 1 1.414.586l13.473 13.473A2 2 0 0 1 54 19.473v19.054a2 2 0 0 1-.586 1.414L39.941 53.414a2 2 0 0 1-1.414.586z" data-original="#ebeff0"/><g fill="#FFF"><path d="M12 31h4v3a1 1 0 0 0 2 0v-3h3a1 1 0 0 0 0-2h-3v-3a1 1 0 0 0-2 0v3h-2.656l2.614-8.713a1 1 0 0 0-1.916-.574l-3 10A1 1 0 0 0 12 31zm25 0h4v3a1 1 0 0 0 2 0v-3h3a1 1 0 0 0 0-2h-3v-3a1 1 0 0 0-2 0v3h-2.656l2.614-8.713a1 1 0 0 0-1.916-.574l-3 10A1 1 0 0 0 37 31z" data-original="#464f5d"/><path fill-rule="nonzero" d="M29 35a5.006 5.006 0 0 0 5-5v-6a5 5 0 0 0-10 0v6a5.006 5.006 0 0 0 5 5zm-3-11a3 3 0 0 1 6 0v6a3 3 0 0 1-6 0z" data-original="#464f5d"/><path d="M46 37H12a1 1 0 0 0 0 2h34a1 1 0 0 0 0-2z" data-original="#464f5d"/></g></g></symbol><symbol id="delete" viewBox="0 0 510 510"><path fill="#DDD" d="M118.832 467.243A44.892 44.892 0 0 0 163.776 510h182.447a44.89 44.89 0 0 0 44.944-42.757L417.447 165H92.552zM300 240h30v165h-30zm-60 0h30v165h-30zm-60 0h30v165h-30zM330 75V45c0-24.812-20.186-45-45-45h-60c-24.812 0-45 20.188-45 45v30H60v60h390V75zm-120 0V45c0-8.271 6.73-15 15-15h60c8.272 0 15 6.729 15 15v30z" data-original="#000000"/></symbol><symbol id="back" viewBox="0 0 512 512"><path fill="#DDD" d="M256 0C114.618 0 0 114.618 0 256s114.618 256 256 256 256-114.618 256-256S397.382 0 256 0zm0 469.333c-117.818 0-213.333-95.515-213.333-213.333S138.182 42.667 256 42.667 469.333 138.182 469.333 256 373.818 469.333 256 469.333z" data-original="#000000"/><path fill="#DDD" d="M313.752 134.248c-8.331-8.331-21.839-8.331-30.17 0L176.915 240.915c-8.331 8.331-8.331 21.839 0 30.17l106.667 106.667c8.331 8.331 21.839 8.331 30.17 0 8.331-8.331 8.331-21.839 0-30.17L222.17 256l91.582-91.582c8.331-8.331 8.331-21.838 0-30.17z" data-original="#000000"/></symbol></svg>
